<?xml version="1.0" encoding="utf-8"?>
<svg xmlns="http://www.w3.org/2000/svg" viewBox="388.3622 183.2072 2941.5768 3289.2075" width="2941.58px" height="3289.21px" preserveAspectRatio="none"><g style="transform-origin: 1859.15px 1827.81px;" transform="matrix(0.965926110744, 0.258819013834, -0.258819013834, 0.965926110744, 0.000343238327, -0.000172647044)" id="object-0"><g><g><g><title>leg</title><g><path style="fill:#F8F8F8;" d="M1994.38,2772.434c-9.02,0.154-18.706,0.769-28.956,1.794 c-110.186,10.865-281.103,67.393-281.103,67.393l-194.389,282.64c-10.865,15.734-31.057,22.14-48.995,15.529 c-150.263-55.606-282.128-126.227-392.263-214.735c-14.094-11.326-19.321-30.391-12.915-47.303 c2.409-6.303,5.227-13.376,8.456-20.961c18.091-41.973,49.661-99.475,95.17-126.637c76.259-45.458,178.553,15.99,178.553,15.99 s136.631-200.488,181.474-250.456c44.843-49.968,195.619-111.468,195.619-111.468l269.469,190.494 C1964.501,2574.713,2100.312,2770.742,1994.38,2772.434z"/></g></g><g><g><path style="fill:#F8F8F8;" d="M2941.622,2507.782c-0.307,33.312-11.889,65.548-32.799,91.48 c-49.097,60.987-155.747,158.668-326.766,143.601c-39.155-3.434-73.594-30.545-103.831-73.645 c-160.154-227.906-203.665-903.834-203.665-903.834l221.653-181.935c0,0,216.529,7.636,295.965,78.77 c34.696,31.057,69.341,134.068,96.554,271.16c13.53,68.162,25.266,144.78,34.183,225.19 c7.124,63.959,12.454,130.327,15.58,196.695C2940.956,2406.462,2942.032,2457.66,2941.622,2507.782z"/></g></g><g><g><path style="fill:#371A45;" d="M2617.153,2762.895c-11.919,0-24.138-0.527-36.719-1.636 c-111.25-9.8-199.575-181.995-262.524-511.804c-45.811-240.012-61.636-480.486-61.79-482.886 c-0.654-10.183,7.07-18.97,17.253-19.627c10.193-0.601,18.97,7.07,19.626,17.253c0.154,2.38,15.857,240.847,61.265,478.628 c57.795,302.639,139.268,473.682,229.412,481.624c162.93,14.321,264.626-79.524,310.74-136.755 c18.274-22.681,28.472-51.116,28.716-80.071c3.169-375.947-76.135-771.509-143.281-831.636 c-73.513-65.823-282.175-73.997-284.272-74.07c-10.198-0.364-18.171-8.926-17.81-19.121c0.361-10.2,9.055-18.123,19.116-17.813 c9.114,0.322,224.158,8.74,307.62,83.474c83.069,74.382,158.679,492.073,155.581,859.478 c-0.313,37.246-13.416,73.806-36.89,102.944C2876.006,2669.448,2775.791,2762.883,2617.153,2762.895z"/></g></g><g><g><path style="fill:#F8F8F8;" d="M2938.496,2355.263c-69.238,44.69-189.52,76.823-236.003,41.769l5.843-246.407l2.972-123.767 c0,0,86.919-63.857,177.426-93.479c41.819-13.683,65.138,47.611,78.77,124.023c0.154,0.923,0.307,1.948,0.512,2.973 c15.375,88.354,18.091,195.567,21.474,230.315C2991.488,2311.292,2970.424,2334.61,2938.496,2355.263z"/></g></g><g><g><path style="fill:#371A45;" d="M2760.034,2430.405c-26.98,0.002-51.155-5.403-68.672-18.625 c-8.147-6.147-9.766-17.734-3.618-25.879c6.147-8.147,17.732-9.766,25.879-3.618c31.794,23.989,125.247,8.274,200-33.638 c41.018-22.998,58.547-45.227,57.478-56.152c-0.945-9.626-1.802-24.036-2.886-42.28 c-4.346-73.159-15.891-267.493-60.107-297.583c-4.324-2.942-8.269-3.433-13.613-1.682 c-86.514,28.323-171.426,90.186-172.275,90.808c-8.22,6.033-19.788,4.258-25.825-3.967c-6.038-8.228-4.265-19.787,3.96-25.825 c3.647-2.678,90.4-65.94,182.642-96.138c16.218-5.305,32.09-3.15,45.903,6.252c54.661,37.197,67.998,187.749,76.208,325.942 c1.06,17.849,1.897,31.946,2.771,40.869c2.954,30.12-24.102,62.791-76.182,91.99 C2886.242,2406.364,2816.921,2430.402,2760.034,2430.405z"/></g></g><g style="opacity:0.25;"><g><path style="fill:#371A45;" d="M2938.496,2355.263c2.46,51.198,3.536,102.396,3.126,152.518 c-0.307,33.312-11.889,65.548-32.799,91.48c-49.097,60.987-155.747,158.668-326.766,143.601 c-39.155-3.434-73.594-30.545-103.831-73.645c2.819-99.834,16.759-107.162,27.828-204.178 c11.941-105.163,32.441-173.479,46.125-188.854l156.157-125.561l7.482-5.996c0,0,5.535,58.527,85.792,55.76 c41.204-1.435,87.688-16.4,121.307-41.82c31.877-24.138,52.121-57.707,45.099-98.194 c15.375,88.354,18.091,195.567,21.474,230.315C2991.488,2311.292,2970.424,2334.61,2938.496,2355.263z"/></g></g><g><g><path style="fill:#371A45;" d="M2947.664,2003.526c-28.523,8.728-57.383,18.601-85.022,29.897 c-18.943,8.322-40.877,16.619-55.374,30.444c-0.69,0.673-0.865,1.149-1.394,1.736c-0.049,0.354-0.263,0.235-0.37,0.608 c-0.956,4.111-1.459,9.373-1.826,13.75c-1.692,29.704-0.789,60.515-0.015,90.942c0.926,30.52,2.256,61.064,3.891,91.599 c-4.609-30.232-8.918-60.518-12.832-90.894c-3.754-30.466-7.679-60.635-8.977-92.036c-0.022-5.012-0.161-10.777,0.567-15.891 c0.299-4.184,2.488-8.699,4.882-12.014c16.521-20.22,38.582-30.358,59.975-42.584c27.692-14.601,55.654-27.34,84.563-39.391 C2959.139,1960.956,2971.495,1995.555,2947.664,2003.526L2947.664,2003.526z"/></g></g><g><g><path style="fill:#371A45;" d="M1455.488,3160.859c-6.997,0.002-14.077-1.218-20.943-3.757 c-155.637-57.556-289.358-130.779-397.449-217.639c-20.4-16.389-27.886-43.828-18.626-68.276 c16.526-43.625,52.981-122.019,111.448-156.902c66.931-39.929,148.477-8.523,182.07,7.813 c31.851-46.423,134.893-195.54,173.672-238.75c47.141-52.527,196.057-113.657,202.373-116.235 c9.446-3.86,20.232,0.679,24.087,10.129c3.855,9.448-0.679,20.232-10.127,24.089c-40.847,16.67-154.399,68.337-188.828,106.699 c-43.518,48.491-178.613,246.526-179.973,248.521c-5.515,8.093-16.387,10.476-24.785,5.43 c-0.911-0.542-93.882-55.142-159.553-15.957c-48.845,29.141-81.001,99.128-95.823,138.254 c-3.577,9.438-0.676,20.039,7.212,26.377c104.98,84.36,235.227,155.615,387.119,211.785c10.046,3.716,21.282,0.151,27.344-8.66 l194.407-282.629c2.285-3.323,5.596-5.808,9.426-7.073c8.445-2.791,208.057-68.384,315.559-70.12 c16.042-0.259,18.96-5.938,19.919-7.803c13.569-26.409-30.591-111.643-64.707-160.933c-5.808-8.391-3.716-19.9,4.673-25.71 c8.389-5.808,19.897-3.718,25.705,4.668c16.238,23.438,95.796,143.176,67.205,198.853c-6.384,12.437-20.625,27.368-52.2,27.878 c-92.031,1.484-264.731,55.459-298.689,66.355l-190.85,277.456C1493.647,3151.455,1474.905,3160.859,1455.488,3160.859z"/></g></g><g style="opacity:0.25;"><g><path style="fill:#371A45;" d="M2001.657,2687.872c0,11.531-7.687,17.937-16.656,41c-3.741,9.583-10.813,26.137-19.577,45.356 c-110.186,10.865-281.103,67.393-281.103,67.393l-194.389,282.64c-10.865,15.734-31.057,22.14-48.995,15.529 c-150.263-55.606-282.128-126.227-392.263-214.735c-14.094-11.326-19.321-30.391-12.915-47.303 c2.409-6.303,5.227-13.376,8.456-20.961l49.712,29.263c172.71,93.992,298.476,100.551,359.361-13.683 c0,0,117.874-158.873,211.967-224.472c94.094-65.65,81.435-170.148,81.435-170.148l226.778,181.935 C1981.157,2666.091,2001.657,2676.341,2001.657,2687.872z"/></g></g><g><g><path style="fill:#371A45;" d="M1686.487,2851.875c-1.201,0-2.424-0.142-3.643-0.439 c-187.642-45.605-301.162-192.439-305.903-198.667c-5.144-6.755-3.835-16.404,2.922-21.545 c6.755-5.142,16.401-3.833,21.54,2.915c1.233,1.611,112.056,144.482,288.701,187.419c8.252,2.004,13.315,10.32,11.309,18.569 C1699.704,2847.158,1693.415,2851.875,1686.487,2851.875z"/></g></g><g><g><path style="fill:#F8F8F8;" d="M1313.079,2455.063c0,0,145.283-29.822,260.406-114.405l-282.933,21.553"/></g></g><g style="opacity:0.25;"><g><path style="fill:#371A45;" d="M1313.079,2455.063c0,0,145.283-29.822,260.406-114.405l-282.933,21.553"/></g></g><g><g><path style="fill:#371A45;" d="M1313.059,2473.544c-8.587,0-16.277-6.018-18.076-14.758 c-2.056-9.993,4.38-19.763,14.373-21.821c1.416-0.293,142.839-30.122,253.191-111.196c8.225-6.045,19.785-4.275,25.83,3.95 c6.042,8.223,4.275,19.788-3.95,25.83c-117.039,85.991-261.538,116.365-267.632,117.615 C1315.542,2473.42,1314.292,2473.544,1313.059,2473.544z"/></g></g><g><g><path style="fill:#F8F8F8;" d="M 2507.745 2879.186 L 2307.104 3141.378 C 2257.085 3206.721 2165.246 3224.095 2095.7 3180.123 C 2033.996 3141.071 1981.875 3068.297 1949.793 2991.525 C 1925.706 2934.074 1912.893 2874.369 1915.559 2824.811 C 1916.481 2807.284 1922.683 2790.474 1932.574 2776.022 L 1953.176 2745.939 C 1953.176 2745.939 1772.727 2690.949 1733.88 2409.436 L 1733.88 2335.944 C 1733.88 2335.944 1639.94 2329.692 1633.073 2317.443 C 1626.257 2305.194 1539.338 2006.257 1539.338 2006.257 C 1539.338 2006.257 1657.007 1814.84 1826.13 1740.58 C 1905.874 1705.577 2013.302 1762.52 2108.677 1758.062 C 2215.583 1753.091 2306.388 1689.075 2306.388 1689.075 L 2456.753 1681.131 C 2456.753 1681.131 2584.62 1717.569 2652.936 1838.825 C 2721.303 1960.132 2741.802 2174.15 2680.303 2283.26 C 2760.199 2555.085 2725.913 2766.079 2507.745 2879.186 Z"/></g></g><g><g><path style="fill:#371A45;" d="M 2179.194 3222.57 C 2146.906 3222.572 2114.487 3213.862 2085.825 3195.717 C 1966.86 3120.409 1890.889 2939.274 1897.112 2823.81 C 1898.211 2803.429 1905.205 2783.292 1917.341 2765.578 L 1925.093 2754.265 C 1872.971 2728.918 1747.717 2644.765 1715.576 2411.943 C 1715.459 2411.106 1715.4 2410.261 1715.4 2409.416 L 1715.4 2353.112 C 1627.805 2345.878 1620.813 2333.366 1616.955 2326.457 C 1610.119 2314.213 1554.26 2123.818 1521.572 2011.413 C 1520.114 2006.408 1520.842 2001.017 1523.574 1996.577 C 1528.503 1988.559 1656.936 1765.32 1845.219 1769.38 C 2111.202 1775.115 2335.044 1761.261 2347.939 1762.205 C 2358.115 1762.95 2330.429 1716.848 2329.685 1727.023 C 2328.94 1737.201 1880.737 1790.542 1870.505 1789.753 C 1867.441 1789.533 1879.957 1775.117 1857.019 1782.342 C 1661.318 1843.982 1581.934 1975.021 1559.41 2009.182 C 1590.238 2115.058 1637.818 2276.167 1648.175 2305.427 C 1661.019 2310.083 1701.595 2315.281 1735.113 2317.522 C 1744.818 2318.171 1752.359 2326.233 1752.359 2335.96 L 1752.359 2408.14 C 1789.537 2673.77 1956.885 2727.766 1958.575 2728.282 C 1964.202 2729.998 1968.675 2734.29 1970.623 2739.845 C 1972.569 2745.397 1971.753 2751.544 1968.428 2756.398 L 1947.83 2786.466 C 1939.524 2798.588 1934.749 2812.189 1934.017 2825.799 C 1928.355 2930.826 2000.528 3097.987 2105.592 3164.493 C 2166.234 3202.877 2248.295 3187.791 2292.416 3130.147 L 2493.073 2867.974 C 2494.723 2865.816 2496.83 2864.051 2499.242 2862.801 C 2693.2 2762.249 2746.622 2574.381 2662.56 2288.463 C 2661.151 2283.675 2661.74 2278.522 2664.191 2274.176 C 2718.903 2177.125 2705.619 1969.969 2636.855 1847.911 C 2573.269 1735.047 2452.878 1699.234 2451.669 1698.888 C 2441.874 1696.063 2436.203 1685.836 2439.01 1676.036 C 2441.82 1666.236 2452.015 1660.57 2461.823 1663.353 C 2467.341 1664.925 2597.809 1703.316 2669.052 1829.772 C 2735.717 1948.102 2762.135 2165.299 2700.143 2285.355 C 2741.361 2428.561 2749.064 2546.39 2723.698 2645.345 C 2696.02 2753.333 2627.477 2836.864 2519.936 2893.68 L 2321.762 3152.608 C 2286.924 3198.125 2233.259 3222.565 2179.194 3222.57 Z"/></g></g><g><g><path style="fill:#F8F8F8;" d="M1870.611,2060.36h389.788c34.946,0,63.275,28.329,63.275,63.275v236.017 c0,34.334-27.381,62.403-61.705,63.255l-389.788,9.672c-35.549,0.882-64.844-27.695-64.844-63.255v-245.689 C1807.337,2088.689,1835.666,2060.36,1870.611,2060.36z"/></g></g><g><g><path style="fill:#371A45;" d="M1870.544,2451.076c-21.438,0-41.611-8.203-57.019-23.23 c-15.906-15.518-24.668-36.301-24.668-58.523v-245.688c0-45.078,36.675-81.753,81.753-81.753h389.79 c45.078,0,81.753,36.675,81.753,81.753v236.016c0,44.719-35.02,80.62-79.724,81.729l-389.79,9.67 C1871.941,2451.066,1871.24,2451.076,1870.544,2451.076z M1870.61,2078.84c-24.7,0-44.795,20.095-44.795,44.795v245.688 c0,12.178,4.8,23.567,13.516,32.068c8.716,8.501,20.173,13.074,32.39,12.715l389.79-9.67 c24.497-0.608,43.684-20.281,43.684-44.785v-236.016c0-24.7-20.095-44.795-44.795-44.795H1870.61z"/></g></g><g><g><path style="fill:#F8F8F8;" d="M1758.29,2064.631h389.788c34.946,0,63.275,28.329,63.275,63.275v236.017 c0,34.334-27.381,62.404-61.705,63.255l-389.788,9.672c-35.549,0.882-64.844-27.695-64.844-63.255v-245.689 C1695.015,2092.96,1723.344,2064.631,1758.29,2064.631z"/></g></g><g><g><path style="fill:#371A45;" d="M2026.87,2448.161c-9.705,0.002-17.685-7.744-17.925-17.5 c-0.774-31.692-1.716-81.353-0.803-106.946c-28.105-7.021-112.39-18.145-188.13-25.981c-8.821-0.913-15.649-8.132-16.072-16.99 l-10.251-215.259c-0.471-9.897,7.168-18.301,17.063-18.772c9.927-0.437,18.298,7.168,18.772,17.065l9.519,199.878 c189.382,20.115,197.312,31.128,202.107,37.778c3.218,4.465,4.392,10.061,3.215,15.352c-1.23,7.834-0.762,63.704,0.444,113 c0.242,9.902-7.59,18.127-17.493,18.369C2027.168,2448.159,2027.016,2448.161,2026.87,2448.161z M2016.264,2326.303h0.049 H2016.264z M2009.338,2309.04c-0.088,0.393-0.159,0.784-0.217,1.167C2009.189,2309.772,2009.262,2309.384,2009.338,2309.04z M2009.341,2309.028c0,0.002-0.002,0.007-0.002,0.01C2009.338,2309.035,2009.341,2309.03,2009.341,2309.028z"/></g></g><g><g><path style="fill:#371A45;" d="M1758.227,2455.349c-21.44,0-41.619-8.206-57.024-23.235 c-15.906-15.515-24.668-36.299-24.668-58.521v-245.688c0-45.078,36.675-81.753,81.755-81.753h389.788 c45.078,0,81.753,36.675,81.753,81.753v236.018c0,44.719-35.02,80.618-79.724,81.726l-389.79,9.673 C1759.619,2455.339,1758.921,2455.349,1758.227,2455.349z M1758.291,2083.11c-24.702,0-44.797,20.095-44.797,44.795v245.688 c0,12.178,4.8,23.564,13.516,32.068c8.716,8.503,20.303,12.988,32.39,12.717l389.79-9.673 c24.497-0.608,43.684-20.278,43.684-44.783v-236.018c0-24.7-20.095-44.795-44.795-44.795H1758.291z"/></g></g><g><g><path style="fill:#BCC4CC;" d="M2199.121,2291.663l-1.435,27.06c-0.922,17.476-15.016,31.365-32.543,32.031l-495.94,17.681 l-685.512,24.497c-18.706,0.666-34.388-13.991-35.003-32.748l-0.871-28.136c-0.359-11.019,4.664-20.961,12.659-27.367h0.051 c5.484-4.459,12.351-7.226,19.936-7.482l683.667-23.728l1.384-0.051l498.657-17.322 C2184.002,2255.43,2200.146,2271.83,2199.121,2291.663z"/></g></g><g style="opacity:0.61;"><g><path style="fill:#FFFFFF;" d="M2199.121,2291.663l-0.974,18.757c-3.793-14.965-17.63-26.086-33.978-25.522l-498.195,17.323 l-0.718-28.802l498.913-17.322C2184.002,2255.43,2200.146,2271.83,2199.121,2291.663z"/></g></g><g><g><path style="fill:#BCC4CC;" d="M1670.227,2365.872l-1.128-0.103l-708.574-61.089h-0.051l-26.906-58.885l-204.536-447.51 c-5.33-11.634-3.946-25.163,3.639-35.464l15.887-21.627c6.253-8.456,15.99-13.735,26.496-14.247l593.878-31.416 c40.436-2.152,77.643,21.832,92.403,59.552l1.23,3.075l201.564,515.313l3.485,52.94L1670.227,2365.872z"/></g></g><g style="opacity:0.61;"><g><path style="fill:#FFFFFF;" d="M1664.692,2282.028l-193.108-493.634c-14.76-37.719-51.967-61.704-92.403-59.552 l-593.878,31.416c-10.506,0.512-20.243,5.791-26.496,14.247l-15.887,21.627c-3.895,5.33-6.201,11.48-6.714,17.783 l-7.175-15.631c-5.33-11.634-3.946-25.163,3.639-35.464l15.887-21.627c6.253-8.456,15.99-13.735,26.496-14.247l593.878-31.416 c40.436-2.152,77.643,21.832,92.403,59.552l202.794,518.388L1664.692,2282.028z"/></g></g><g><g><path style="fill:#371A45;" d="M982.453,2408.596c-12.578,0-24.492-4.695-33.728-13.333 c-9.678-9.05-15.234-21.328-15.647-34.57l-0.874-28.162c-0.847-27.148,20.552-50.007,47.703-50.95l0,0l1183.726-41.111 c13.845-0.5,27.292,4.9,36.982,14.761c9.688,9.861,14.829,23.433,14.106,37.236l-1.416,27.063 c-1.353,25.774-21.819,45.906-47.61,46.826l-1181.431,42.207C983.659,2408.586,983.054,2408.596,982.453,2408.596z M980.991,2312.832L980.991,2312.832c-9.978,0.347-17.844,8.748-17.532,18.726l0.874,28.162 c0.151,4.866,2.195,9.38,5.752,12.708c3.557,3.328,8.196,5.034,13.062,4.888l1181.433-42.207 c9.48-0.337,17.002-7.739,17.5-17.214l1.416-27.061c0.269-5.149-1.572-10.007-5.186-13.687 c-3.613-3.677-8.406-5.632-13.594-5.425L980.991,2312.832z"/></g></g><g><g><path style="fill:#371A45;" d="M1670.229,2381.489c-8.167,0-15.039-6.338-15.586-14.604l-5.947-89.978l-201.919-516.135 c-12.317-31.487-43.32-51.413-77.034-49.651l-593.87,31.413c-5.864,0.31-11.226,3.201-14.705,7.932l-15.901,21.619 c-4.199,5.708-4.978,13.254-2.034,19.697l231.436,506.404c3.591,7.854,0.134,17.129-7.72,20.718 c-7.854,3.606-17.131,0.132-20.718-7.72L714.797,1804.78c-7.659-16.753-5.635-36.379,5.281-51.221l15.901-21.619 c9.05-12.305,22.991-19.824,38.245-20.632l593.87-31.414c47.273-2.437,90.567,25.425,107.805,69.485l202.8,518.386 c0.583,1.492,0.935,3.066,1.04,4.666l6.106,92.393c0.569,8.616-5.955,16.062-14.57,16.631 C1670.925,2381.477,1670.576,2381.489,1670.229,2381.489z"/></g></g><g style="opacity:0.25;"><g><path style="fill:#371A45;" d="M1669.202,2368.435l-685.512,24.497c-18.706,0.666-34.388-13.991-35.003-32.748l-0.871-28.136 c-0.359-11.019,4.664-20.961,12.659-27.367l-26.906-58.885c318.002-7.944,517.977-123.511,496.299-418.092v-87.124 l32.697,17.578l201.564,515.313l1.384-0.051c0.769,18.86,1.486,36.746,2.101,52.992c0.564,14.657,1.076,27.931,1.486,39.359 C1669.151,2366.692,1669.151,2367.563,1669.202,2368.435z"/></g></g><g><g><g><path style="fill:#F8F8F8;" d="M1054.825,2413.688c0,0,29.895-113.603,150.331-93.957 c120.436,19.646,148.623,139.228,64.062,182.79c-84.562,43.562-353.621,36.729-319.454-176.81 C949.764,2325.71,960.013,2388.063,1054.825,2413.688z"/></g></g><g style="opacity:0.25;"><g><path style="fill:#371A45;" d="M1269.201,2502.503c-58.424,30.084-204.895,36.131-278.592-33.415 c71.391,19.116,153.697,9.789,194.03-10.967c56.989-29.366,62.78-93.274,23.575-137.81 C1326.036,2341.426,1353.045,2459.3,1269.201,2502.503z"/></g></g><g><g><path style="fill:#371A45;" d="M1158.498,2542.155c-56.689,0.002-118.44-12.839-163.284-45.322 c-37.424-27.109-78.855-79.309-63.696-174.043c1.431-8.948,9.141-15.54,18.206-15.557c0.012,0,0.027-0.002,0.039-0.002 c9.045,0,16.765,6.55,18.232,15.481c0.337,1.724,9.302,44.412,75.269,68.022c19.16-45.205,70.034-104.712,164.866-89.241 c68.337,11.147,118.186,54.294,126.992,109.924c7.036,44.448-14.976,85.649-57.442,107.527 C1250.259,2533.071,1206.167,2542.155,1158.498,2542.155z M967.502,2388.288c5.684,32.59,22.188,58.909,49.392,78.616 c70.234,50.876,193.296,45.242,243.862,19.189c28.235-14.546,42.39-40.303,37.864-68.899 c-4.761-30.066-32.873-68.857-96.438-79.226c-102.685-16.768-128.442,76.448-129.49,80.422 c-1.253,4.761-4.351,8.823-8.611,11.289c-4.258,2.463-9.326,3.135-14.08,1.846 C1011.36,2421.081,985.18,2404.821,967.502,2388.288z"/></g></g></g><g><g><g><path style="fill:#F8F8F8;" d="M2435.278,2143.04c-6.765,57.297-31.569,112.902-67.188,140.218l-168.918-56.631 c0,0-39.923,46.125-140.475,35.875c-100.602-10.25-146.727-112.134-146.727-112.134s-42.896,89.072-94.811,53.197 c-14.145-9.789-20.961-21.832-23.216-34.44c-2.921-16.4,1.845-33.773,8.354-48.379c7.739-17.373,19.065-32.902,32.646-46.227 l96.246-94.76c81.128-106.752,194.748-29.878,273.313,15.375h192.185C2431.332,2029.42,2441.94,2087.024,2435.278,2143.04z"/></g></g><g><g><path style="fill:#371A45;" d="M2368.088,2301.728c-1.97,0-3.953-0.315-5.869-0.959l-158.716-53.198 c-18.538,14.719-64.629,41.685-146.704,33.315c-75.435-7.688-122.51-60.574-145.283-94.453 c-12.373,16.838-30.894,36.016-54.033,42.131c-17.351,4.595-34.927,1.199-50.83-9.797 c-33.669-23.279-41.206-60.767-21.223-105.557c8.398-18.823,20.691-36.277,36.538-51.87l95.334-93.821 c85.85-111.545,203.381-42.778,281.24,2.771c3.708,2.17,7.358,4.304,10.935,6.382h187.227c4.868,0,9.539,1.921,12.998,5.344 c32.72,32.38,49.272,86.072,45.417,147.307c-4.441,70.5-34.187,136.675-75.781,168.586 C2376.067,2300.419,2372.104,2301.728,2368.088,2301.728z M2199.17,2208.149c1.963,0,3.943,0.313,5.869,0.959l159.036,53.306 c29.314-27.625,50.701-80.454,54.163-135.415c2.966-47.124-7.759-87.908-29.563-113.369h-184.155 c-3.237,0-6.418-0.852-9.224-2.468c-5.002-2.881-10.146-5.891-15.415-8.972c-95.112-55.647-172.737-91.814-233.979-11.23 c-0.535,0.703-1.121,1.367-1.751,1.987l-96.26,94.731c-12.542,12.344-22.202,26.001-28.711,40.591 c-18.491,41.445,1.111,54.998,8.489,60.098c9.221,6.379,16.016,5.608,20.332,4.48c21.328-5.601,41.836-39.18,47.336-50.5 c3.135-6.443,9.819-10.525,16.877-10.413c7.163,0.098,13.633,4.314,16.589,10.84c0.405,0.886,43.271,92.332,131.741,101.345 c88.525,9.026,124.314-29.197,124.651-29.583C2188.769,2210.407,2193.901,2208.149,2199.17,2208.149z"/></g></g><g><g><path style="fill:#371A45;" d="M1895.782,2141.485l68.719-86.543l-36.342,104.36c-3.405,9.775-14.088,14.941-23.863,11.536 C1892.243,2166.896,1887.779,2151.233,1895.782,2141.485L1895.782,2141.485z"/></g></g><g><g><polygon style="fill:#371A45;" points="2182.304,2219.073 2225.873,2174.097 2216.031,2234.18 2182.304,2219.073 &#9;&#9;&#9;&#9;&#9;&#9;"/></g></g><g style="opacity:0.25;"><g><path style="fill:#371A45;" d="M2435.278,2143.04c-6.765,57.297-31.569,112.902-67.188,140.218l-168.918-56.631 c0,0-39.923,46.125-140.475,35.875c-100.602-10.25-146.727-112.134-146.727-112.134s-42.896,89.072-94.811,53.197 c-14.145-9.789-20.961-21.832-23.216-34.44l5.689-5.688c0,0,38.437,25.625,80.308-31.621 c41-56.067,94.299-103.114,96.451-104.959c-1.333,3.28-42.947,107.419,41.051,156.208 c85.433,49.558,188.802-86.253,188.802-86.253s61.499,53.812,210.123,46.125 C2423.132,2142.579,2429.435,2142.63,2435.278,2143.04z"/></g></g></g><g><g><path style="fill:#371A45;" d="M1941.943,2731.29c52.788-38.01,136.98-76.206,200.399-43.322 c29.269,17.603,54.567,41.503,76.635,67.14c21.646,25.191,40.333,52.476,55.583,81.387 c-38.459-40.898-80.021-78.133-128.789-105.266c-18.338-10.004-37.518-17.744-58.677-18.152 c-43.887,0.212-87.255,22.65-122.669,47.543C1944.574,2775.275,1922.543,2746.766,1941.943,2731.29L1941.943,2731.29z"/></g></g><g><g><path style="fill:#371A45;" d="M2214.16,3218.569c-7.19,0-13.977-4.353-16.731-11.462c-3.579-9.236,1.008-19.626,10.247-23.206 c4.719-1.829,11.409-5.762,15-18.75c18.389-66.509-65.994-242.686-129.683-324.468 c-66.16-84.956-119.402-76.663-121.636-76.272c-9.678,2.08-19.065-4.141-21.133-13.831c-2.068-9.688,4.263-19.248,13.95-21.313 c3.071-0.654,75.989-14.81,157.124,89.375c60.369,77.52,160.269,268.13,135.955,356.069 c-5.764,20.847-18.428,35.593-36.619,42.642C2218.506,3218.178,2216.313,3218.569,2214.16,3218.569z"/></g></g><g><g><path style="fill:#371A45;" d="M2099.966,2682.171c-0.36,0.347-0.689,0.735-0.974,1.145c-0.094,0.125-0.383,0.605-0.288,0.447 c0.604-0.97,2.083-3.553,2.71-4.578c26.807-45.38,58.874-87.41,94.76-126.03c49.499-54.288,119.626-93.305,193.222-100.473 c18.372-1.046,36.617-0.348,54.286,2.86c-17.946,1.375-35.424,3.97-52.238,8.762c-49.972,14.387-93.613,43.981-130.735,79.688 c-12.369,11.809-25.061,23.266-37.371,35.337c-30.522,30.618-56.641,65.67-79.946,102.063 c-2.105,3.386-8.219,13.233-10.191,16.641c0,0-1.693,2.861-1.693,2.861l-0.903,1.523 C2116.983,2726.583,2082.85,2704.056,2099.966,2682.171L2099.966,2682.171z"/></g></g><g><g><path style="fill:#371A45;" d="M2424.616,3003.168c-7.383,0-13.899-5.337-15.149-12.861 c-30.334-182.776-144.551-331.475-254.604-331.475c-8.491,0-15.376-6.885-15.376-15.376s6.885-15.376,15.376-15.376 c126.538,0,251.697,156.897,284.941,357.192c1.389,8.376-4.275,16.294-12.651,17.686 C2426.301,3003.098,2425.454,3003.168,2424.616,3003.168z"/></g></g><g><g><path style="fill:#371A45;" d="M2393.579,1976.939l102.653,1.128l-96.401,35.295 C2371.499,2021.669,2364.094,1978.564,2393.579,1976.939L2393.579,1976.939z"/></g></g><g><g><path style="fill:#371A45;" d="M2563.152,2344.741c-94.436,0-195.725-41.726-202.2-44.438 c-9.409-3.94-13.843-14.761-9.905-24.175c3.938-9.412,14.756-13.855,24.175-9.915c61.016,25.503,232.209,76.16,290.823,5.264 c6.499-7.869,18.152-8.972,26.013-2.468c7.866,6.501,8.972,18.149,2.468,26.013 C2663.579,2332.458,2614.365,2344.741,2563.152,2344.741z"/></g></g><g><g><path style="fill:#371A45;" d="M2339.639,1993.766l-4.434-83.176l39.982,73.071c5.024,9.18,1.653,20.696-7.528,25.72 C2355.824,2016.235,2340.072,2007.316,2339.639,1993.766L2339.639,1993.766z"/></g></g><g><g><path style="fill:#371A45;" d="M1705.153,2067.027c3.014-27.559,7.852-53.699,14.214-80.381 c6.395-26.05,14.534-51.914,26.043-76.057c-8.298,38.897-8.725,78.192-6.699,117.48c0.749,12.923,1.807,26.208,3.404,38.508 C1744.263,2093.99,1703.694,2094.539,1705.153,2067.027L1705.153,2067.027z"/></g></g><g style="opacity:0.25;"><g><path style="fill:#371A45;" d="M2680.301,2283.258c79.898,271.826,45.612,482.82-172.557,595.927l-200.641,262.192 c-50.019,65.343-141.858,82.717-211.404,38.745c-61.704-39.052-113.825-111.826-145.907-188.598 c5.996,4.817,12.043,10.096,18.142,15.784c208.38,194.748,186.907-87.124,186.907-87.124 c200.077,172.864,96.4-111.57,94.76-116.182l74.055,58.117c0,0,17.527-46.125,172.556-181.935 c155.081-135.811,64.062-297.247,64.062-297.247c-110.186,21.781-236.618-58.937-236.618-56.528 c0,2.409-100.346-12.658-104.19-10.096c-3.844,2.563-0.871-83.178-0.871-83.178l158.617,53.709l58.065-143.806 c41.922-0.615,134.273-0.974,134.273-0.974c105.317-220.372-89.942-341.065-89.942-341.065 c-238.207,104.805-530.483,28.443-541.347,25.368l174.35-138.681c106.906-4.971,193.774,1.384,193.774,1.384l150.365-7.944 c0,0,127.867,36.438,196.183,157.694C2721.301,1960.131,2741.8,2174.148,2680.301,2283.258z"/></g></g><path style="stroke: rgb(0, 0, 0); fill: rgb(255, 255, 255);" d="M 1491.702 768.353 C 1513.654 722.005 1586.835 662.991 1624.736 627.971 C 1893.591 379.553 2328.134 421.389 2555.421 685.965 C 2589.774 725.953 2670.82 803.601 2691.079 852.713 C 2710.216 899.101 2688.669 974.228 2713.16 1016.576 C 2759.383 1096.501 2778.111 1160.249 2773.64 1248.938 C 2771.764 1286.146 2718.226 1328.775 2701.396 1363.057 C 2680.013 1406.613 2668.231 1417.151 2660.36 1468.231 C 2654.455 1506.553 2596.545 1513.584 2623.152 1513.584 C 2624.414 1513.584 2603.83 1542.814 2588.804 1558.717 C 2557.16 1592.207 2578.34 1556.638 2541.571 1584.305 C 2523.711 1597.743 2522.815 1628.424 2507.596 1644.918 C 2504.423 1648.356 2506.64 1635.587 2506.714 1630.909 C 2506.862 1621.523 2504.202 1585.75 2516.411 1578.908 C 2531.905 1570.226 2518.862 1610.876 2517.96 1612.875 C 2504.93 1641.773 2477.594 1694.877 2454.458 1715.01 C 2440.759 1726.931 2395.193 1760.207 2378.328 1758.625 C 2367.689 1757.627 2316.264 1727.609 2308.089 1734.766 C 2303.231 1739.018 2310.124 1764.398 2306.276 1772.24 C 2296.449 1792.269 2264.31 1792.634 2245.891 1797.134 C 2187.694 1811.354 2122.774 1810.744 2063.191 1817.247 C 2056.911 1817.932 1988.424 1818.426 1993.397 1798.819 C 1994.012 1796.395 2048.07 1782.836 2051.856 1781.437 C 2107.003 1761.061 2162.937 1748.276 2217.593 1728.469 C 2338.369 1684.701 2454.451 1539.49 2516.526 1426.338 C 2548.807 1367.496 2514.775 1366.841 2490.928 1321.107 C 2476.565 1293.562 2457.755 1254.137 2457.755 1223.619 C 2457.755 1180.808 2454.295 1137.319 2468.081 1096.167 C 2477.099 1069.249 2524.578 1042.29 2513.016 1010.606 C 2483.361 929.336 2387.783 835.86 2317.717 791.209 C 2292.041 774.846 2248.917 746.426 2216.675 746.426 C 2212.237 746.426 2225.282 749.096 2229.72 749.096 C 2235.53 749.096 2218.097 749.27 2212.289 749.096 C 2201.181 748.763 2189.007 744.451 2179.675 738.276 C 2145.799 715.858 2129.99 689.05 2084.312 680.583 C 1960.699 657.67 1879.845 649.16 1754.478 654.412 C 1726.434 655.587 1626.227 676.425 1604.084 695.757 C 1588.842 709.064 1564.024 751.028 1541.666 751.028 L 1491.702 768.353 Z"/><g style="opacity:0.25;"><g><path style="fill:#371A45;" d="M2859.674,1662.885c0,0-0.512-0.205-1.537-0.615 C2858.649,1662.013,2859.674,1662.885,2859.674,1662.885z"/></g></g><g><g><g><circle style="fill:#F8F8F8; opacity: 0" cx="2058.9" cy="1139.77" r="685.58"/></g></g><g style="opacity:0.25;"><g><path style="fill:#371A45;" d="M 2699.803 1383.209 C 2565.322 1737.2130000000002 2169.3869999999997 1915.145 1815.436 1780.6840000000002 C 1702.475 1737.7720000000002 1607.472 1668.2200000000003 1534.817 1581.8970000000002 C 1581.753 1615.4630000000002 1633.818 1643.622 1690.299 1665.0780000000002 C 2044.25 1799.5390000000002 2440.185 1621.6070000000002 2574.645 1267.6560000000002 C 2666.214 1026.6130000000003 2612.886 766.0970000000002 2457.777 581.9510000000001 C 2705.152 758.583 2812.808 1085.739 2699.803 1383.209 Z"/></g></g><g style="opacity:0.2;"><g><path style="fill:#371A45;" d="M 1422.365 1402.585 C 1460.721 1490.876 1525.006 1585.747 1630.9180000000001 1675.546 C 1934.3190000000002 1877.644 2343.002 1799.5030000000002 2515.827 1379.4250000000002 L 2488.525 1031.265 C 2473.986 977.6020000000001 2444.265 926.6960000000001 2403.496 880.5780000000001 C 2153.535 598.0000000000001 1489.1170000000002 494.9990000000001 1380.2 1042.372 C 1380.2 1042.374 1336.917 1205.954 1422.365 1402.585 Z"/></g></g><g style="opacity:0.4;"><g><path style="fill:#111A28;" d="M 1422.365 1402.585 C 1460.721 1490.876 1525.006 1585.747 1630.9180000000001 1675.546 C 1934.3190000000002 1877.644 2343.002 1799.5030000000002 2515.827 1379.4250000000002 L 2488.525 1031.265 C 2473.986 977.6020000000001 2444.265 926.6960000000001 2403.496 880.5780000000001 C 2495.1730000000002 1356.439 1910.689 1840.39 1426.5900000000001 1404.656 L 1422.365 1402.585 Z"/></g></g><g><g><path style="fill:#371A45;" d="M 2030.781 1840.737 C 2017.546 1840.737 2004.072 1840.3020000000001 1990.2849999999999 1839.401 C 1980.7509999999997 1838.779 1973.5299999999997 1830.546 1974.1519999999998 1821.0120000000002 C 1974.7749999999999 1811.478 1982.956 1804.179 1992.5409999999997 1804.8790000000001 C 2166.142 1816.229 2314.8309999999997 1753.124 2434.584 1617.3400000000001 C 2516.4199999999996 1524.5520000000001 2556.1319999999996 1427.5500000000002 2563.08 1409.5590000000002 L 2548.497 980.3600000000001 C 2481.29 828.0140000000001 2345.352 705.4380000000001 2165.348 634.9670000000001 C 1981.08 562.8310000000001 1781.273 559.315 1630.8609999999999 625.5600000000001 C 1622.116 629.408 1611.906 625.445 1608.0579999999998 616.7030000000001 C 1604.2049999999997 607.96 1608.1729999999998 597.7500000000001 1616.9149999999997 593.9000000000001 C 1775.5699999999997 524.022 1985.3059999999998 527.3330000000001 2177.957 602.7500000000001 C 2367.774 677.0620000000001 2511.102 807.3350000000002 2581.5389999999998 969.5710000000001 C 2582.406 971.5630000000001 2582.8869999999997 973.7020000000001 2582.9599999999996 975.8720000000002 L 2597.7719999999995 1411.832 C 2597.8479999999995 1414.007 2597.5109999999995 1416.1750000000002 2596.7809999999995 1418.2240000000002 C 2595.1429999999996 1422.824 2555.5769999999993 1532.0860000000002 2461.3339999999994 1639.313 C 2379.026 1732.963 2239.001 1840.725 2030.781 1840.737 Z"/></g></g><g><g><path style="fill:#371A45;" d="M 1971.15 1798.933 C 1851.326 1798.935 1729.688 1761.645 1621.5330000000001 1689.602 C 1613.7620000000002 1684.424 1611.66 1673.928 1616.8360000000002 1666.1570000000002 C 1622.0120000000002 1658.3840000000002 1632.5150000000003 1656.286 1640.2810000000002 1661.457 C 1790.0420000000001 1761.218 1966.719 1790.698 2125.0170000000003 1742.355 C 2288.5620000000004 1692.404 2421.128 1562.626 2498.657 1376.7060000000001 L 2471.777 1034.2130000000002 C 2444.7580000000003 936.4100000000002 2359.804 840.2560000000002 2238.435 770.1870000000001 C 2117.288 700.2450000000001 1972.148 662.7090000000002 1840.254 667.1300000000001 C 1701.8339999999998 671.7950000000001 1460.154 727.1790000000001 1396.748 1045.6820000000002 C 1394.9270000000001 1054.8420000000003 1386.025 1060.7970000000003 1376.865 1058.9630000000002 C 1367.707 1057.1420000000003 1361.76 1048.2380000000003 1363.584 1039.0800000000002 C 1413.22 789.7340000000002 1586.545 641.8440000000002 1839.114 633.3310000000001 C 2134.524 623.4160000000002 2445.498 807.2860000000002 2504.832 1026.8880000000001 C 2505.105 1027.8960000000002 2505.284 1028.9320000000002 2505.364 1029.9740000000002 L 2532.686 1378.1040000000003 C 2532.8940000000002 1380.7500000000002 2532.476 1383.4070000000004 2531.4680000000003 1385.8600000000004 C 2450.235 1583.3060000000003 2309.3950000000004 1721.3970000000004 2134.896 1774.6950000000004 C 2081.721 1790.937 2026.626 1798.933 1971.15 1798.933 Z"/></g></g><g><g><path style="fill:#371A45;" d="M 2059.189 1846.489 C 1974.487 1846.489 1889.616 1831.05 1808.064 1800.068 C 1443.975 1661.755 1260.291 1253.022 1398.601 888.935 C 1465.6 712.56 1597.275 572.836 1769.368 495.5 C 1941.455 418.161 2133.367 412.47 2309.737 479.472 C 2673.826 617.785 2857.51 1026.518 2719.197 1390.607 C 2652.197 1566.979 2520.523 1706.703 2348.433 1784.039 C 2255.915 1825.617 2157.668 1846.489 2059.189 1846.489 Z M 2058.628 474.589 C 1965.928 474.589 1873.472 494.23 1786.384 533.366 C 1624.409 606.159 1500.473 737.67 1437.409 903.676 C 1307.228 1246.367 1480.116 1631.076 1822.805 1761.259 C 1988.818 1824.321 2169.441 1818.962 2331.413 1746.174 C 2493.388 1673.381 2617.324 1541.87 2680.388 1375.866 L 2699.792 1383.237 L 2680.388 1375.866 C 2810.571 1033.175 2630.926 648.111 2288.238 517.927 C 2211.485 488.772 2138.342 474.589 2058.628 474.589 Z"/></g></g><g><g><g><path style="fill:#F8F8F8;" d="M 2766.792 1191.793 C 2768.408 1314.734 2707.348 1413.77 2611.715 1415.0269999999998 C 2516.0820000000003 1416.2839999999997 2437.246 1317.639 2435.63 1194.6979999999999 C 2434.014 1071.7569999999998 2510.23 971.0739999999998 2605.862 969.8169999999999 C 2701.495 968.559 2765.175 1068.852 2766.792 1191.793 Z"/></g></g><g style="opacity:0.25;"><g><path style="fill:#371A45;" d="M 2611.688 1415.031 C 2516.079 1416.271 2437.242 1317.652 2435.65 1194.7179999999998 C 2435.137 1155.7559999999999 2442.419 1118.9719999999998 2455.7290000000003 1086.9499999999998 C 2471.5780000000004 1190.7619999999997 2543.418 1268.7569999999998 2628.4790000000003 1267.6699999999998 C 2691.7500000000005 1266.8059999999998 2739.8940000000002 1223.2369999999999 2764.7700000000004 1158.2279999999998 C 2765.9770000000003 1169.177 2766.6540000000005 1180.407 2766.7900000000004 1191.7939999999999 C 2768.383 1314.727 2707.371 1413.758 2611.688 1415.031 Z"/></g></g><g><g><path style="fill:#371A45;" d="M 2609.875 1435.796 C 2557.863 1435.798 2509.047 1410.5030000000002 2472.199 1364.397 C 2436.074 1319.194 2415.715 1259.023 2414.8720000000003 1194.971 C 2413.1090000000004 1060.781 2498.664 950.467 2605.5870000000004 949.06 C 2657.7380000000003 948.516 2705.1870000000004 974.404 2738.6120000000005 1022.361 C 2769.3130000000006 1066.411 2786.6930000000007 1126.487 2787.5480000000007 1191.521 C 2789.3910000000005 1331.694 2715.5560000000005 1434.421 2611.986000000001 1435.7839999999999 C 2611.284 1435.793 2610.576 1435.796 2609.875 1435.796 Z M 2607.654 990.563 C 2607.146 990.563 2606.646 990.566 2606.135 990.573 C 2522.099 991.677 2454.922 1083.124 2456.3860000000004 1194.423 C 2457.106 1249.291 2474.2400000000002 1300.451 2504.6310000000003 1338.476 C 2533.8030000000003 1374.977 2571.731 1394.8020000000001 2611.4400000000005 1394.2700000000002 C 2690.9570000000003 1393.2250000000001 2747.5630000000006 1308.1860000000001 2746.0350000000003 1192.0680000000002 C 2745.2880000000005 1135.2490000000003 2730.5560000000005 1083.4110000000003 2704.5530000000003 1046.101 C 2686.838 1020.681 2655.696 990.563 2607.654 990.563 Z"/></g></g><g><g><path style="fill:#371A45;" d="M 2669.526 1400.532 C 2585.839 1400.532 2516.765 1307.0749999999998 2515.207 1191.2279999999998 C 2514.499 1135.8669999999997 2529.047 1083.4149999999997 2556.169 1043.5279999999998 C 2584.589 1001.7309999999998 2623.3999999999996 978.4179999999998 2665.4559999999997 977.8809999999997 C 2673.9449999999997 977.7739999999998 2682.5209999999997 978.6769999999998 2690.8859999999995 980.5369999999997 C 2691.6179999999995 980.6979999999996 2692.3389999999995 980.9079999999997 2693.0419999999995 981.1639999999996 C 2702.0209999999993 984.4279999999997 2706.6799999999994 994.3649999999997 2703.4159999999993 1003.3419999999996 C 2700.3519999999994 1011.7699999999996 2691.428999999999 1016.3669999999996 2682.9369999999994 1014.2109999999997 C 2677.3069999999993 1012.9929999999997 2671.5209999999993 1012.4189999999996 2665.8759999999993 1012.4749999999997 C 2635.4679999999994 1012.8629999999997 2606.6599999999994 1030.7999999999997 2584.776999999999 1062.9799999999998 C 2561.6059999999993 1097.062 2549.1839999999993 1142.4449999999997 2549.800999999999 1190.7729999999997 C 2551.101999999999 1287.6839999999997 2604.690999999999 1365.9339999999997 2669.483999999999 1365.9339999999997 C 2669.844999999999 1365.9339999999997 2670.201999999999 1365.9319999999998 2670.565999999999 1365.9269999999997 C 2679.427999999999 1365.8049999999996 2687.965999999999 1364.2349999999997 2695.934999999999 1361.2619999999997 C 2704.899999999999 1357.9169999999997 2714.850999999999 1362.4679999999996 2718.190999999999 1371.4179999999997 C 2721.5309999999986 1380.3679999999997 2716.9849999999988 1390.3339999999996 2708.034999999999 1393.6739999999998 C 2696.3329999999987 1398.0419999999997 2683.884999999999 1400.3439999999998 2671.034999999999 1400.5219999999997 C 2670.537 1400.527 2670.024 1400.532 2669.526 1400.532 Z"/></g></g></g><g style="opacity:0.5;"><g><path style="fill:#FFFFFF;" d="M 1885.28 774.288 C 1681.972 901.009 1563.863 1076.615 1542.883 1307.951 C 1541.201 1326.501 1514.941 1329.041 1509.777 1311.145 C 1425.097 1017.713 1466.711 764.008 1875.394 742.968 C 1892.907 742.066 1900.162 765.012 1885.28 774.288 Z"/></g></g><g style="opacity:0.5;"><g><path style="fill:#FFFFFF;" d="M 2280.775 1202.969 L 2277.149 1203.269 C 2243.978 1206.008 2214.187 1183.064 2208.2259999999997 1150.318 C 2207.544 1146.569 2206.8409999999994 1142.939 2206.1259999999997 1139.435 C 2199.0099999999998 1104.543 2221.16 1070.415 2256.0429999999997 1063.254 L 2258.7799999999997 1062.692 C 2291.4219999999996 1055.991 2323.8169999999996 1075.223 2333.624 1107.071 C 2335.066 1111.754 2336.433 1116.417 2337.727 1121.059 C 2348.639 1160.21 2321.281 1199.625 2280.775 1202.969 Z"/></g></g><g style="opacity:0.5;"><g><path style="fill:#FFFFFF;" d="M 2148.324 1595.454 C 2117 1576.696 2107.358 1535.676 2127.204 1505.03 C 2161.215 1452.511 2181.107 1399.336 2191.8210000000004 1349.161 C 2199.3430000000003 1313.935 2233.53 1291.1670000000001 2268.7500000000005 1298.72 C 2271.7740000000003 1299.369 2274.8000000000006 1300.017 2277.8210000000004 1300.665 C 2313.3640000000005 1308.281 2335.8900000000003 1343.771 2327.1270000000004 1379.05 C 2305.3030000000003 1466.904 2264.28 1535.774 2233.9500000000003 1577.847 C 2214.321 1605.074 2177.121 1612.7 2148.324 1595.454 Z"/></g></g></g><g style="opacity:0.25;"><g><path style="fill:#371A45;" d="M1807.337,2620.732c0,0,227.206,63.724,404.016-67.816l-81.875,122.145l-29.165,19.28 c-61.618,3.437-111.613,17.448-142.86,48.515C1894.879,2719.931,1843.118,2681.668,1807.337,2620.732z"/></g></g><g style="opacity:0.25;"><g><path style="fill:#371A45;" d="M1734.791,1949.651c0,0-76.727,68.494-116.975,205.407l52.428,113.424l18.364-12.407 c0,0,8.542-141.555,6.406-144.117s22.823-28.828,28.601-66.624c5.778-37.796,5.368-61.081,5.368-61.081"/></g></g><g><g><path style="fill:#371A45;" d="M1332.59,2734.903l31.012,70.842l-60.344-48.362c-8.201-6.572-9.521-18.55-2.948-26.75 C1308.787,2719.477,1327.32,2722.069,1332.59,2734.903L1332.59,2734.903z"/></g></g><g><g><path style="fill:#371A45;" d="M2581.189,1765.07c-3.999,0-8.027-1.294-11.414-3.958c-8.02-6.311-9.407-17.927-3.096-25.947 c87.661-111.399,222.605-92.08,228.308-91.208c10.085,1.553,17.004,10.986,15.454,21.074 c-1.55,10.071-10.969,16.975-21.033,15.459c-4.905-0.732-119.634-16.582-193.687,77.527 C2592.077,1762.651,2586.66,1765.07,2581.189,1765.07z"/></g></g><g style="opacity:0.25;"><g><path style="fill:#371A45;" d="M2588.496,1592.174c0,0-105.095,48.389,42.247,208.814 c-52.94-54.2-107.875-96.411-166.347-117.358l81.363-96.548"/></g></g></g></g></g></svg>