<?xml version="1.0" encoding="utf-8"?>
<!-- Generator: Adobe Illustrator 27.5.0, SVG Export Plug-In . SVG Version: 6.00 Build 0)  -->
<svg version="1.1" id="Layer_1" xmlns="http://www.w3.org/2000/svg" xmlns:xlink="http://www.w3.org/1999/xlink" x="0px"
     y="0px"
     viewBox="0 0 4000 4000" style="enable-background:new 0 0 4000 4000;" xml:space="preserve">
<g>
	<g>
		<g>
			<g>
				<g>
					<path style="fill:#F8F8F8;" d="M1994.38,2772.434c-9.02,0.154-18.706,0.769-28.956,1.794
						c-110.186,10.865-281.103,67.393-281.103,67.393l-194.389,282.64c-10.865,15.734-31.057,22.14-48.995,15.529
						c-150.263-55.606-282.128-126.227-392.263-214.735c-14.094-11.326-19.321-30.391-12.915-47.303
						c2.409-6.303,5.227-13.376,8.456-20.961c18.091-41.973,49.661-99.475,95.17-126.637c76.259-45.458,178.553,15.99,178.553,15.99
						s136.631-200.488,181.474-250.456c44.843-49.968,195.619-111.468,195.619-111.468l269.469,190.494
						C1964.501,2574.713,2100.312,2770.742,1994.38,2772.434z"/>
				</g>
			</g>
            <g>
				<g>
					<path style="fill:#F8F8F8;" d="M2941.622,2507.782c-0.307,33.312-11.889,65.548-32.799,91.48
						c-49.097,60.987-155.747,158.668-326.766,143.601c-39.155-3.434-73.594-30.545-103.831-73.645
						c-160.154-227.906-203.665-903.834-203.665-903.834l221.653-181.935c0,0,216.529,7.636,295.965,78.77
						c34.696,31.057,69.341,134.068,96.554,271.16c13.53,68.162,25.266,144.78,34.183,225.19
						c7.124,63.959,12.454,130.327,15.58,196.695C2940.956,2406.462,2942.032,2457.66,2941.622,2507.782z"/>
				</g>
			</g>
            <g>
				<g>
					<path style="fill:#371A45;" d="M2617.153,2762.895c-11.919,0-24.138-0.527-36.719-1.636
						c-111.25-9.8-199.575-181.995-262.524-511.804c-45.811-240.012-61.636-480.486-61.79-482.886
						c-0.654-10.183,7.07-18.97,17.253-19.627c10.193-0.601,18.97,7.07,19.626,17.253c0.154,2.38,15.857,240.847,61.265,478.628
						c57.795,302.639,139.268,473.682,229.412,481.624c162.93,14.321,264.626-79.524,310.74-136.755
						c18.274-22.681,28.472-51.116,28.716-80.071c3.169-375.947-76.135-771.509-143.281-831.636
						c-73.513-65.823-282.175-73.997-284.272-74.07c-10.198-0.364-18.171-8.926-17.81-19.121c0.361-10.2,9.055-18.123,19.116-17.813
						c9.114,0.322,224.158,8.74,307.62,83.474c83.069,74.382,158.679,492.073,155.581,859.478
						c-0.313,37.246-13.416,73.806-36.89,102.944C2876.006,2669.448,2775.791,2762.883,2617.153,2762.895z"/>
				</g>
			</g>
            <g>
				<g>
					<path style="fill:#F8F8F8;" d="M2938.496,2355.263c-69.238,44.69-189.52,76.823-236.003,41.769l5.843-246.407l2.972-123.767
						c0,0,86.919-63.857,177.426-93.479c41.819-13.683,65.138,47.611,78.77,124.023c0.154,0.923,0.307,1.948,0.512,2.973
						c15.375,88.354,18.091,195.567,21.474,230.315C2991.488,2311.292,2970.424,2334.61,2938.496,2355.263z"/>
				</g>
			</g>
            <g>
				<g>
					<path style="fill:#371A45;" d="M2760.034,2430.405c-26.98,0.002-51.155-5.403-68.672-18.625
						c-8.147-6.147-9.766-17.734-3.618-25.879c6.147-8.147,17.732-9.766,25.879-3.618c31.794,23.989,125.247,8.274,200-33.638
						c41.018-22.998,58.547-45.227,57.478-56.152c-0.945-9.626-1.802-24.036-2.886-42.28
						c-4.346-73.159-15.891-267.493-60.107-297.583c-4.324-2.942-8.269-3.433-13.613-1.682
						c-86.514,28.323-171.426,90.186-172.275,90.808c-8.22,6.033-19.788,4.258-25.825-3.967c-6.038-8.228-4.265-19.787,3.96-25.825
						c3.647-2.678,90.4-65.94,182.642-96.138c16.218-5.305,32.09-3.15,45.903,6.252c54.661,37.197,67.998,187.749,76.208,325.942
						c1.06,17.849,1.897,31.946,2.771,40.869c2.954,30.12-24.102,62.791-76.182,91.99
						C2886.242,2406.364,2816.921,2430.402,2760.034,2430.405z"/>
				</g>
			</g>
            <g style="opacity:0.25;">
				<g>
					<path style="fill:#371A45;" d="M2938.496,2355.263c2.46,51.198,3.536,102.396,3.126,152.518
						c-0.307,33.312-11.889,65.548-32.799,91.48c-49.097,60.987-155.747,158.668-326.766,143.601
						c-39.155-3.434-73.594-30.545-103.831-73.645c2.819-99.834,16.759-107.162,27.828-204.178
						c11.941-105.163,32.441-173.479,46.125-188.854l156.157-125.561l7.482-5.996c0,0,5.535,58.527,85.792,55.76
						c41.204-1.435,87.688-16.4,121.307-41.82c31.877-24.138,52.121-57.707,45.099-98.194
						c15.375,88.354,18.091,195.567,21.474,230.315C2991.488,2311.292,2970.424,2334.61,2938.496,2355.263z"/>
				</g>
			</g>
            <g>
				<g>
					<path style="fill:#371A45;" d="M2947.664,2003.526c-28.523,8.728-57.383,18.601-85.022,29.897
						c-18.943,8.322-40.877,16.619-55.374,30.444c-0.69,0.673-0.865,1.149-1.394,1.736c-0.049,0.354-0.263,0.235-0.37,0.608
						c-0.956,4.111-1.459,9.373-1.826,13.75c-1.692,29.704-0.789,60.515-0.015,90.942c0.926,30.52,2.256,61.064,3.891,91.599
						c-4.609-30.232-8.918-60.518-12.832-90.894c-3.754-30.466-7.679-60.635-8.977-92.036c-0.022-5.012-0.161-10.777,0.567-15.891
						c0.299-4.184,2.488-8.699,4.882-12.014c16.521-20.22,38.582-30.358,59.975-42.584c27.692-14.601,55.654-27.34,84.563-39.391
						C2959.139,1960.956,2971.495,1995.555,2947.664,2003.526L2947.664,2003.526z"/>
				</g>
			</g>
            <g>
				<g>
					<path style="fill:#371A45;" d="M1455.488,3160.859c-6.997,0.002-14.077-1.218-20.943-3.757
						c-155.637-57.556-289.358-130.779-397.449-217.639c-20.4-16.389-27.886-43.828-18.626-68.276
						c16.526-43.625,52.981-122.019,111.448-156.902c66.931-39.929,148.477-8.523,182.07,7.813
						c31.851-46.423,134.893-195.54,173.672-238.75c47.141-52.527,196.057-113.657,202.373-116.235
						c9.446-3.86,20.232,0.679,24.087,10.129c3.855,9.448-0.679,20.232-10.127,24.089c-40.847,16.67-154.399,68.337-188.828,106.699
						c-43.518,48.491-178.613,246.526-179.973,248.521c-5.515,8.093-16.387,10.476-24.785,5.43
						c-0.911-0.542-93.882-55.142-159.553-15.957c-48.845,29.141-81.001,99.128-95.823,138.254
						c-3.577,9.438-0.676,20.039,7.212,26.377c104.98,84.36,235.227,155.615,387.119,211.785c10.046,3.716,21.282,0.151,27.344-8.66
						l194.407-282.629c2.285-3.323,5.596-5.808,9.426-7.073c8.445-2.791,208.057-68.384,315.559-70.12
						c16.042-0.259,18.96-5.938,19.919-7.803c13.569-26.409-30.591-111.643-64.707-160.933c-5.808-8.391-3.716-19.9,4.673-25.71
						c8.389-5.808,19.897-3.718,25.705,4.668c16.238,23.438,95.796,143.176,67.205,198.853c-6.384,12.437-20.625,27.368-52.2,27.878
						c-92.031,1.484-264.731,55.459-298.689,66.355l-190.85,277.456C1493.647,3151.455,1474.905,3160.859,1455.488,3160.859z"/>
				</g>
			</g>
            <g style="opacity:0.25;">
				<g>
					<path style="fill:#371A45;" d="M2001.657,2687.872c0,11.531-7.687,17.937-16.656,41c-3.741,9.583-10.813,26.137-19.577,45.356
						c-110.186,10.865-281.103,67.393-281.103,67.393l-194.389,282.64c-10.865,15.734-31.057,22.14-48.995,15.529
						c-150.263-55.606-282.128-126.227-392.263-214.735c-14.094-11.326-19.321-30.391-12.915-47.303
						c2.409-6.303,5.227-13.376,8.456-20.961l49.712,29.263c172.71,93.992,298.476,100.551,359.361-13.683
						c0,0,117.874-158.873,211.967-224.472c94.094-65.65,81.435-170.148,81.435-170.148l226.778,181.935
						C1981.157,2666.091,2001.657,2676.341,2001.657,2687.872z"/>
				</g>
			</g>
            <g>
				<g>
					<path style="fill:#371A45;" d="M1686.487,2851.875c-1.201,0-2.424-0.142-3.643-0.439
						c-187.642-45.605-301.162-192.439-305.903-198.667c-5.144-6.755-3.835-16.404,2.922-21.545
						c6.755-5.142,16.401-3.833,21.54,2.915c1.233,1.611,112.056,144.482,288.701,187.419c8.252,2.004,13.315,10.32,11.309,18.569
						C1699.704,2847.158,1693.415,2851.875,1686.487,2851.875z"/>
				</g>
			</g>
            <g>
				<g>
					<path style="fill:#F8F8F8;"
                          d="M1313.079,2455.063c0,0,145.283-29.822,260.406-114.405l-282.933,21.553"/>
				</g>
			</g>
            <g style="opacity:0.25;">
				<g>
					<path style="fill:#371A45;"
                          d="M1313.079,2455.063c0,0,145.283-29.822,260.406-114.405l-282.933,21.553"/>
				</g>
			</g>
            <g>
				<g>
					<path style="fill:#371A45;" d="M1313.059,2473.544c-8.587,0-16.277-6.018-18.076-14.758
						c-2.056-9.993,4.38-19.763,14.373-21.821c1.416-0.293,142.839-30.122,253.191-111.196c8.225-6.045,19.785-4.275,25.83,3.95
						c6.042,8.223,4.275,19.788-3.95,25.83c-117.039,85.991-261.538,116.365-267.632,117.615
						C1315.542,2473.42,1314.292,2473.544,1313.059,2473.544z"/>
				</g>
			</g>
            <g>
				<g>
					<path style="fill:#F8F8F8;" d="M2507.745,2879.186l-200.641,262.192c-50.019,65.343-141.858,82.717-211.404,38.745
						c-61.704-39.052-113.825-111.826-145.907-188.598c-24.087-57.451-36.9-117.156-34.234-166.714
						c0.922-17.527,7.124-34.337,17.015-48.789l20.602-30.083c0,0-180.449-54.99-219.296-336.503v-73.492
						c0,0-93.94-6.252-100.807-18.501c-6.816-12.249-93.735-311.186-93.735-311.186s117.669-191.417,286.792-265.677
						c79.744-35.003,191.109-48.431,286.484-52.889c106.906-4.971,193.774,1.384,193.774,1.384l150.365-7.944
						c0,0,127.867,36.438,196.183,157.694c68.367,121.307,88.866,335.325,27.367,444.435
						C2760.199,2555.085,2725.913,2766.079,2507.745,2879.186z"/>
				</g>
			</g>
            <g>
				<g>
					<path style="fill:#371A45;" d="M2179.194,3222.57c-32.288,0.002-64.707-8.708-93.369-26.853
						c-118.965-75.308-194.936-256.443-188.713-371.907c1.099-20.381,8.093-40.518,20.229-58.232l7.752-11.313
						c-52.122-25.347-177.376-109.5-209.517-342.322c-0.117-0.837-0.176-1.682-0.176-2.527v-56.304
						c-87.595-7.234-94.587-19.746-98.445-26.655c-6.836-12.244-62.695-202.639-95.383-315.044
						c-1.458-5.005-0.73-10.396,2.002-14.836c4.929-8.018,122.695-197.188,295.125-272.917
						c171.355-75.256,476.121-53.94,489.016-52.996c10.176,0.745,17.822,9.6,17.078,19.775c-0.745,10.178-9.543,17.869-19.775,17.08
						c-3.064-0.22-308.538-21.575-471.46,49.978c-144.092,63.284-251.624,217.524-274.148,251.685
						c30.828,105.876,78.408,266.985,88.765,296.245c12.844,4.656,53.42,9.854,86.938,12.095
						c9.705,0.649,17.246,8.711,17.246,18.438v72.18c37.178,265.63,204.526,319.626,206.216,320.142
						c5.627,1.716,10.1,6.008,12.048,11.563c1.946,5.552,1.13,11.699-2.195,16.553l-20.598,30.068
						c-8.306,12.122-13.081,25.723-13.813,39.333c-5.662,105.027,66.511,272.188,171.575,338.694
						c60.642,38.384,142.703,23.298,186.824-34.346l200.657-262.173c1.65-2.158,3.757-3.923,6.169-5.173
						c193.958-100.552,247.38-288.42,163.318-574.338c-1.409-4.788-0.82-9.941,1.631-14.287
						c54.712-97.051,41.428-304.207-27.336-426.265c-63.586-112.864-183.977-148.677-185.186-149.023
						c-9.795-2.825-15.466-13.052-12.659-22.852c2.81-9.8,13.005-15.466,22.813-12.683c5.518,1.572,135.986,39.963,207.229,166.419
						c66.665,118.33,93.083,335.527,31.091,455.583c41.218,143.206,48.921,261.035,23.555,359.99
						c-27.678,107.988-96.221,191.519-203.762,248.335l-198.174,258.928C2286.924,3198.125,2233.259,3222.565,2179.194,3222.57z"/>
				</g>
			</g>
            <g>
				<g>
					<path style="fill:#F8F8F8;" d="M1870.611,2060.36h389.788c34.946,0,63.275,28.329,63.275,63.275v236.017
						c0,34.334-27.381,62.403-61.705,63.255l-389.788,9.672c-35.549,0.882-64.844-27.695-64.844-63.255v-245.689
						C1807.337,2088.689,1835.666,2060.36,1870.611,2060.36z"/>
				</g>
			</g>
            <g>
				<g>
					<path style="fill:#371A45;" d="M1870.544,2451.076c-21.438,0-41.611-8.203-57.019-23.23
						c-15.906-15.518-24.668-36.301-24.668-58.523v-245.688c0-45.078,36.675-81.753,81.753-81.753h389.79
						c45.078,0,81.753,36.675,81.753,81.753v236.016c0,44.719-35.02,80.62-79.724,81.729l-389.79,9.67
						C1871.941,2451.066,1871.24,2451.076,1870.544,2451.076z M1870.61,2078.84c-24.7,0-44.795,20.095-44.795,44.795v245.688
						c0,12.178,4.8,23.567,13.516,32.068c8.716,8.501,20.173,13.074,32.39,12.715l389.79-9.67
						c24.497-0.608,43.684-20.281,43.684-44.785v-236.016c0-24.7-20.095-44.795-44.795-44.795H1870.61z"/>
				</g>
			</g>
            <g>
				<g>
					<path style="fill:#F8F8F8;" d="M1758.29,2064.631h389.788c34.946,0,63.275,28.329,63.275,63.275v236.017
						c0,34.334-27.381,62.404-61.705,63.255l-389.788,9.672c-35.549,0.882-64.844-27.695-64.844-63.255v-245.689
						C1695.015,2092.96,1723.344,2064.631,1758.29,2064.631z"/>
				</g>
			</g>
            <g>
				<g>
					<path style="fill:#371A45;" d="M2026.87,2448.161c-9.705,0.002-17.685-7.744-17.925-17.5
						c-0.774-31.692-1.716-81.353-0.803-106.946c-28.105-7.021-112.39-18.145-188.13-25.981c-8.821-0.913-15.649-8.132-16.072-16.99
						l-10.251-215.259c-0.471-9.897,7.168-18.301,17.063-18.772c9.927-0.437,18.298,7.168,18.772,17.065l9.519,199.878
						c189.382,20.115,197.312,31.128,202.107,37.778c3.218,4.465,4.392,10.061,3.215,15.352c-1.23,7.834-0.762,63.704,0.444,113
						c0.242,9.902-7.59,18.127-17.493,18.369C2027.168,2448.159,2027.016,2448.161,2026.87,2448.161z M2016.264,2326.303h0.049
						H2016.264z M2009.338,2309.04c-0.088,0.393-0.159,0.784-0.217,1.167C2009.189,2309.772,2009.262,2309.384,2009.338,2309.04z
						 M2009.341,2309.028c0,0.002-0.002,0.007-0.002,0.01C2009.338,2309.035,2009.341,2309.03,2009.341,2309.028z"/>
				</g>
			</g>
            <g>
				<g>
					<path style="fill:#371A45;" d="M1758.227,2455.349c-21.44,0-41.619-8.206-57.024-23.235
						c-15.906-15.515-24.668-36.299-24.668-58.521v-245.688c0-45.078,36.675-81.753,81.755-81.753h389.788
						c45.078,0,81.753,36.675,81.753,81.753v236.018c0,44.719-35.02,80.618-79.724,81.726l-389.79,9.673
						C1759.619,2455.339,1758.921,2455.349,1758.227,2455.349z M1758.291,2083.11c-24.702,0-44.797,20.095-44.797,44.795v245.688
						c0,12.178,4.8,23.564,13.516,32.068c8.716,8.503,20.303,12.988,32.39,12.717l389.79-9.673
						c24.497-0.608,43.684-20.278,43.684-44.783v-236.018c0-24.7-20.095-44.795-44.795-44.795H1758.291z"/>
				</g>
			</g>
            <g>
				<g>
					<path style="fill:#BCC4CC;" d="M2199.121,2291.663l-1.435,27.06c-0.922,17.476-15.016,31.365-32.543,32.031l-495.94,17.681
						l-685.512,24.497c-18.706,0.666-34.388-13.991-35.003-32.748l-0.871-28.136c-0.359-11.019,4.664-20.961,12.659-27.367h0.051
						c5.484-4.459,12.351-7.226,19.936-7.482l683.667-23.728l1.384-0.051l498.657-17.322
						C2184.002,2255.43,2200.146,2271.83,2199.121,2291.663z"/>
				</g>
			</g>
            <g style="opacity:0.61;">
				<g>
					<path style="fill:#FFFFFF;" d="M2199.121,2291.663l-0.974,18.757c-3.793-14.965-17.63-26.086-33.978-25.522l-498.195,17.323
						l-0.718-28.802l498.913-17.322C2184.002,2255.43,2200.146,2271.83,2199.121,2291.663z"/>
				</g>
			</g>
            <g>
				<g>
					<path style="fill:#BCC4CC;" d="M1670.227,2365.872l-1.128-0.103l-708.574-61.089h-0.051l-26.906-58.885l-204.536-447.51
						c-5.33-11.634-3.946-25.163,3.639-35.464l15.887-21.627c6.253-8.456,15.99-13.735,26.496-14.247l593.878-31.416
						c40.436-2.152,77.643,21.832,92.403,59.552l1.23,3.075l201.564,515.313l3.485,52.94L1670.227,2365.872z"/>
				</g>
			</g>
            <g style="opacity:0.61;">
				<g>
					<path style="fill:#FFFFFF;" d="M1664.692,2282.028l-193.108-493.634c-14.76-37.719-51.967-61.704-92.403-59.552
						l-593.878,31.416c-10.506,0.512-20.243,5.791-26.496,14.247l-15.887,21.627c-3.895,5.33-6.201,11.48-6.714,17.783
						l-7.175-15.631c-5.33-11.634-3.946-25.163,3.639-35.464l15.887-21.627c6.253-8.456,15.99-13.735,26.496-14.247l593.878-31.416
						c40.436-2.152,77.643,21.832,92.403,59.552l202.794,518.388L1664.692,2282.028z"/>
				</g>
			</g>
            <g>
				<g>
					<path style="fill:#371A45;" d="M982.453,2408.596c-12.578,0-24.492-4.695-33.728-13.333
						c-9.678-9.05-15.234-21.328-15.647-34.57l-0.874-28.162c-0.847-27.148,20.552-50.007,47.703-50.95l0,0l1183.726-41.111
						c13.845-0.5,27.292,4.9,36.982,14.761c9.688,9.861,14.829,23.433,14.106,37.236l-1.416,27.063
						c-1.353,25.774-21.819,45.906-47.61,46.826l-1181.431,42.207C983.659,2408.586,983.054,2408.596,982.453,2408.596z
						 M980.991,2312.832L980.991,2312.832c-9.978,0.347-17.844,8.748-17.532,18.726l0.874,28.162
						c0.151,4.866,2.195,9.38,5.752,12.708c3.557,3.328,8.196,5.034,13.062,4.888l1181.433-42.207
						c9.48-0.337,17.002-7.739,17.5-17.214l1.416-27.061c0.269-5.149-1.572-10.007-5.186-13.687
						c-3.613-3.677-8.406-5.632-13.594-5.425L980.991,2312.832z"/>
				</g>
			</g>
            <g>
				<g>
					<path style="fill:#371A45;" d="M1670.229,2381.489c-8.167,0-15.039-6.338-15.586-14.604l-5.947-89.978l-201.919-516.135
						c-12.317-31.487-43.32-51.413-77.034-49.651l-593.87,31.413c-5.864,0.31-11.226,3.201-14.705,7.932l-15.901,21.619
						c-4.199,5.708-4.978,13.254-2.034,19.697l231.436,506.404c3.591,7.854,0.134,17.129-7.72,20.718
						c-7.854,3.606-17.131,0.132-20.718-7.72L714.797,1804.78c-7.659-16.753-5.635-36.379,5.281-51.221l15.901-21.619
						c9.05-12.305,22.991-19.824,38.245-20.632l593.87-31.414c47.273-2.437,90.567,25.425,107.805,69.485l202.8,518.386
						c0.583,1.492,0.935,3.066,1.04,4.666l6.106,92.393c0.569,8.616-5.955,16.062-14.57,16.631
						C1670.925,2381.477,1670.576,2381.489,1670.229,2381.489z"/>
				</g>
			</g>
            <g style="opacity:0.25;">
				<g>
					<path style="fill:#371A45;" d="M1669.202,2368.435l-685.512,24.497c-18.706,0.666-34.388-13.991-35.003-32.748l-0.871-28.136
						c-0.359-11.019,4.664-20.961,12.659-27.367l-26.906-58.885c318.002-7.944,517.977-123.511,496.299-418.092v-87.124
						l32.697,17.578l201.564,515.313l1.384-0.051c0.769,18.86,1.486,36.746,2.101,52.992c0.564,14.657,1.076,27.931,1.486,39.359
						C1669.151,2366.692,1669.151,2367.563,1669.202,2368.435z"/>
				</g>
			</g>
            <g>
				<g>
					<g>
						<path style="fill:#F8F8F8;" d="M1054.825,2413.688c0,0,29.895-113.603,150.331-93.957
							c120.436,19.646,148.623,139.228,64.062,182.79c-84.562,43.562-353.621,36.729-319.454-176.81
							C949.764,2325.71,960.013,2388.063,1054.825,2413.688z"/>
					</g>
				</g>
                <g style="opacity:0.25;">
					<g>
						<path style="fill:#371A45;" d="M1269.201,2502.503c-58.424,30.084-204.895,36.131-278.592-33.415
							c71.391,19.116,153.697,9.789,194.03-10.967c56.989-29.366,62.78-93.274,23.575-137.81
							C1326.036,2341.426,1353.045,2459.3,1269.201,2502.503z"/>
					</g>
				</g>
                <g>
					<g>
						<path style="fill:#371A45;" d="M1158.498,2542.155c-56.689,0.002-118.44-12.839-163.284-45.322
							c-37.424-27.109-78.855-79.309-63.696-174.043c1.431-8.948,9.141-15.54,18.206-15.557c0.012,0,0.027-0.002,0.039-0.002
							c9.045,0,16.765,6.55,18.232,15.481c0.337,1.724,9.302,44.412,75.269,68.022c19.16-45.205,70.034-104.712,164.866-89.241
							c68.337,11.147,118.186,54.294,126.992,109.924c7.036,44.448-14.976,85.649-57.442,107.527
							C1250.259,2533.071,1206.167,2542.155,1158.498,2542.155z M967.502,2388.288c5.684,32.59,22.188,58.909,49.392,78.616
							c70.234,50.876,193.296,45.242,243.862,19.189c28.235-14.546,42.39-40.303,37.864-68.899
							c-4.761-30.066-32.873-68.857-96.438-79.226c-102.685-16.768-128.442,76.448-129.49,80.422
							c-1.253,4.761-4.351,8.823-8.611,11.289c-4.258,2.463-9.326,3.135-14.08,1.846
							C1011.36,2421.081,985.18,2404.821,967.502,2388.288z"/>
					</g>
				</g>
			</g>
            <g>
				<g>
					<g>
						<path style="fill:#F8F8F8;" d="M2435.278,2143.04c-6.765,57.297-31.569,112.902-67.188,140.218l-168.918-56.631
							c0,0-39.923,46.125-140.475,35.875c-100.602-10.25-146.727-112.134-146.727-112.134s-42.896,89.072-94.811,53.197
							c-14.145-9.789-20.961-21.832-23.216-34.44c-2.921-16.4,1.845-33.773,8.354-48.379c7.739-17.373,19.065-32.902,32.646-46.227
							l96.246-94.76c81.128-106.752,194.748-29.878,273.313,15.375h192.185C2431.332,2029.42,2441.94,2087.024,2435.278,2143.04z"/>
					</g>
				</g>
                <g>
					<g>
						<path style="fill:#371A45;" d="M2368.088,2301.728c-1.97,0-3.953-0.315-5.869-0.959l-158.716-53.198
							c-18.538,14.719-64.629,41.685-146.704,33.315c-75.435-7.688-122.51-60.574-145.283-94.453
							c-12.373,16.838-30.894,36.016-54.033,42.131c-17.351,4.595-34.927,1.199-50.83-9.797
							c-33.669-23.279-41.206-60.767-21.223-105.557c8.398-18.823,20.691-36.277,36.538-51.87l95.334-93.821
							c85.85-111.545,203.381-42.778,281.24,2.771c3.708,2.17,7.358,4.304,10.935,6.382h187.227c4.868,0,9.539,1.921,12.998,5.344
							c32.72,32.38,49.272,86.072,45.417,147.307c-4.441,70.5-34.187,136.675-75.781,168.586
							C2376.067,2300.419,2372.104,2301.728,2368.088,2301.728z M2199.17,2208.149c1.963,0,3.943,0.313,5.869,0.959l159.036,53.306
							c29.314-27.625,50.701-80.454,54.163-135.415c2.966-47.124-7.759-87.908-29.563-113.369h-184.155
							c-3.237,0-6.418-0.852-9.224-2.468c-5.002-2.881-10.146-5.891-15.415-8.972c-95.112-55.647-172.737-91.814-233.979-11.23
							c-0.535,0.703-1.121,1.367-1.751,1.987l-96.26,94.731c-12.542,12.344-22.202,26.001-28.711,40.591
							c-18.491,41.445,1.111,54.998,8.489,60.098c9.221,6.379,16.016,5.608,20.332,4.48c21.328-5.601,41.836-39.18,47.336-50.5
							c3.135-6.443,9.819-10.525,16.877-10.413c7.163,0.098,13.633,4.314,16.589,10.84c0.405,0.886,43.271,92.332,131.741,101.345
							c88.525,9.026,124.314-29.197,124.651-29.583C2188.769,2210.407,2193.901,2208.149,2199.17,2208.149z"/>
					</g>
				</g>
                <g>
					<g>
						<path style="fill:#371A45;" d="M1895.782,2141.485l68.719-86.543l-36.342,104.36c-3.405,9.775-14.088,14.941-23.863,11.536
							C1892.243,2166.896,1887.779,2151.233,1895.782,2141.485L1895.782,2141.485z"/>
					</g>
				</g>
                <g>
					<g>
						<polygon style="fill:#371A45;"
                                 points="2182.304,2219.073 2225.873,2174.097 2216.031,2234.18 2182.304,2219.073 						"/>
					</g>
				</g>
                <g style="opacity:0.25;">
					<g>
						<path style="fill:#371A45;" d="M2435.278,2143.04c-6.765,57.297-31.569,112.902-67.188,140.218l-168.918-56.631
							c0,0-39.923,46.125-140.475,35.875c-100.602-10.25-146.727-112.134-146.727-112.134s-42.896,89.072-94.811,53.197
							c-14.145-9.789-20.961-21.832-23.216-34.44l5.689-5.688c0,0,38.437,25.625,80.308-31.621
							c41-56.067,94.299-103.114,96.451-104.959c-1.333,3.28-42.947,107.419,41.051,156.208
							c85.433,49.558,188.802-86.253,188.802-86.253s61.499,53.812,210.123,46.125
							C2423.132,2142.579,2429.435,2142.63,2435.278,2143.04z"/>
					</g>
				</g>
			</g>
            <g>
				<g>
					<path style="fill:#371A45;" d="M1941.943,2731.29c52.788-38.01,136.98-76.206,200.399-43.322
						c29.269,17.603,54.567,41.503,76.635,67.14c21.646,25.191,40.333,52.476,55.583,81.387
						c-38.459-40.898-80.021-78.133-128.789-105.266c-18.338-10.004-37.518-17.744-58.677-18.152
						c-43.887,0.212-87.255,22.65-122.669,47.543C1944.574,2775.275,1922.543,2746.766,1941.943,2731.29L1941.943,2731.29z"/>
				</g>
			</g>
            <g>
				<g>
					<path style="fill:#371A45;" d="M2214.16,3218.569c-7.19,0-13.977-4.353-16.731-11.462c-3.579-9.236,1.008-19.626,10.247-23.206
						c4.719-1.829,11.409-5.762,15-18.75c18.389-66.509-65.994-242.686-129.683-324.468
						c-66.16-84.956-119.402-76.663-121.636-76.272c-9.678,2.08-19.065-4.141-21.133-13.831c-2.068-9.688,4.263-19.248,13.95-21.313
						c3.071-0.654,75.989-14.81,157.124,89.375c60.369,77.52,160.269,268.13,135.955,356.069
						c-5.764,20.847-18.428,35.593-36.619,42.642C2218.506,3218.178,2216.313,3218.569,2214.16,3218.569z"/>
				</g>
			</g>
            <g>
				<g>
					<path style="fill:#371A45;" d="M2099.966,2682.171c-0.36,0.347-0.689,0.735-0.974,1.145c-0.094,0.125-0.383,0.605-0.288,0.447
						c0.604-0.97,2.083-3.553,2.71-4.578c26.807-45.38,58.874-87.41,94.76-126.03c49.499-54.288,119.626-93.305,193.222-100.473
						c18.372-1.046,36.617-0.348,54.286,2.86c-17.946,1.375-35.424,3.97-52.238,8.762c-49.972,14.387-93.613,43.981-130.735,79.688
						c-12.369,11.809-25.061,23.266-37.371,35.337c-30.522,30.618-56.641,65.67-79.946,102.063
						c-2.105,3.386-8.219,13.233-10.191,16.641c0,0-1.693,2.861-1.693,2.861l-0.903,1.523
						C2116.983,2726.583,2082.85,2704.056,2099.966,2682.171L2099.966,2682.171z"/>
				</g>
			</g>
            <g>
				<g>
					<path style="fill:#371A45;" d="M2424.616,3003.168c-7.383,0-13.899-5.337-15.149-12.861
						c-30.334-182.776-144.551-331.475-254.604-331.475c-8.491,0-15.376-6.885-15.376-15.376s6.885-15.376,15.376-15.376
						c126.538,0,251.697,156.897,284.941,357.192c1.389,8.376-4.275,16.294-12.651,17.686
						C2426.301,3003.098,2425.454,3003.168,2424.616,3003.168z"/>
				</g>
			</g>
            <g>
				<g>
					<path style="fill:#371A45;" d="M2393.579,1976.939l102.653,1.128l-96.401,35.295
						C2371.499,2021.669,2364.094,1978.564,2393.579,1976.939L2393.579,1976.939z"/>
				</g>
			</g>
            <g>
				<g>
					<path style="fill:#371A45;" d="M2563.152,2344.741c-94.436,0-195.725-41.726-202.2-44.438
						c-9.409-3.94-13.843-14.761-9.905-24.175c3.938-9.412,14.756-13.855,24.175-9.915c61.016,25.503,232.209,76.16,290.823,5.264
						c6.499-7.869,18.152-8.972,26.013-2.468c7.866,6.501,8.972,18.149,2.468,26.013
						C2663.579,2332.458,2614.365,2344.741,2563.152,2344.741z"/>
				</g>
			</g>
            <g>
				<g>
					<path style="fill:#371A45;" d="M2339.639,1993.766l-4.434-83.176l39.982,73.071c5.024,9.18,1.653,20.696-7.528,25.72
						C2355.824,2016.235,2340.072,2007.316,2339.639,1993.766L2339.639,1993.766z"/>
				</g>
			</g>
            <g>
				<g>
					<path style="fill:#371A45;" d="M1705.153,2067.027c3.014-27.559,7.852-53.699,14.214-80.381
						c6.395-26.05,14.534-51.914,26.043-76.057c-8.298,38.897-8.725,78.192-6.699,117.48c0.749,12.923,1.807,26.208,3.404,38.508
						C1744.263,2093.99,1703.694,2094.539,1705.153,2067.027L1705.153,2067.027z"/>
				</g>
			</g>
            <g style="opacity:0.25;">
				<g>
					<path style="fill:#371A45;" d="M2680.301,2283.258c79.898,271.826,45.612,482.82-172.557,595.927l-200.641,262.192
						c-50.019,65.343-141.858,82.717-211.404,38.745c-61.704-39.052-113.825-111.826-145.907-188.598
						c5.996,4.817,12.043,10.096,18.142,15.784c208.38,194.748,186.907-87.124,186.907-87.124
						c200.077,172.864,96.4-111.57,94.76-116.182l74.055,58.117c0,0,17.527-46.125,172.556-181.935
						c155.081-135.811,64.062-297.247,64.062-297.247c-110.186,21.781-236.618-58.937-236.618-56.528
						c0,2.409-100.346-12.658-104.19-10.096c-3.844,2.563-0.871-83.178-0.871-83.178l158.617,53.709l58.065-143.806
						c41.922-0.615,134.273-0.974,134.273-0.974c105.317-220.372-89.942-341.065-89.942-341.065
						c-238.207,104.805-530.483,28.443-541.347,25.368l174.35-138.681c106.906-4.971,193.774,1.384,193.774,1.384l150.365-7.944
						c0,0,127.867,36.438,196.183,157.694C2721.301,1960.131,2741.8,2174.148,2680.301,2283.258z"/>
				</g>
			</g>
            <g style="opacity:0.25;">
				<g>
					<path style="fill:#371A45;" d="M2859.674,1662.885c0,0-0.512-0.205-1.537-0.615
						C2858.649,1662.013,2859.674,1662.885,2859.674,1662.885z"/>
				</g>
			</g>
            <g>
				<g>
					<g>
						<circle style="fill:#F8F8F8; opacity: 0" cx="2058.9" cy="1139.77" r="685.58"/>
					</g>
				</g>
                <g style="opacity:0.25;">
					<g>
						<path style="fill:#371A45;" d="M2699.803,1383.209c-134.481,354.004-530.416,531.936-884.367,397.475
							c-112.961-42.912-207.964-112.464-280.619-198.787c46.936,33.566,99.001,61.725,155.482,83.181
							c353.951,134.461,749.886-43.471,884.346-397.422c91.569-241.043,38.241-501.559-116.868-685.705
							C2705.152,758.583,2812.808,1085.739,2699.803,1383.209z"/>
					</g>
				</g>
                <g style="opacity:0.2;">
					<g>
						<path style="fill:#371A45;" d="M1422.365,1402.585c38.356,88.291,102.641,183.162,208.553,272.961
							c303.401,202.098,712.084,123.957,884.909-296.121l-27.302-348.16c-14.539-53.663-44.26-104.569-85.029-150.687
							c-249.961-282.578-914.379-385.579-1023.296,161.794C1380.2,1042.374,1336.917,1205.954,1422.365,1402.585z"/>
					</g>
				</g>
                <g style="opacity:0.4;">
					<g>
						<path style="fill:#111A28;" d="M1422.365,1402.585c38.356,88.291,102.641,183.162,208.553,272.961
							c303.401,202.098,712.084,123.957,884.909-296.121l-27.302-348.16c-14.539-53.663-44.26-104.569-85.029-150.687
							c91.677,475.861-492.807,959.812-976.906,524.078L1422.365,1402.585z"/>
					</g>
				</g>
                <g>
					<g>
						<path style="fill:#371A45;" d="M2030.781,1840.737c-13.235,0-26.709-0.435-40.496-1.336
							c-9.534-0.622-16.755-8.855-16.133-18.389c0.623-9.534,8.804-16.833,18.389-16.133
							c173.601,11.35,322.29-51.755,442.043-187.539c81.836-92.788,121.548-189.79,128.496-207.781l-14.583-429.199
							c-67.207-152.346-203.145-274.922-383.149-345.393c-184.268-72.136-384.075-75.652-534.487-9.407
							c-8.745,3.848-18.955-0.115-22.803-8.857c-3.853-8.743,0.115-18.953,8.857-22.803c158.655-69.878,368.391-66.567,561.042,8.85
							c189.817,74.312,333.145,204.585,403.582,366.821c0.867,1.992,1.348,4.131,1.421,6.301l14.812,435.96
							c0.076,2.175-0.261,4.343-0.991,6.392c-1.638,4.6-41.204,113.862-135.447,221.089
							C2379.026,1732.963,2239.001,1840.725,2030.781,1840.737z"/>
					</g>
				</g>
                <g>
					<g>
						<path style="fill:#371A45;" d="M1971.15,1798.933c-119.824,0.002-241.462-37.288-349.617-109.331
							c-7.771-5.178-9.873-15.674-4.697-23.445c5.176-7.773,15.679-9.871,23.445-4.7c149.761,99.761,326.438,129.241,484.736,80.898
							c163.545-49.951,296.111-179.729,373.64-365.649l-26.88-342.493c-27.019-97.803-111.973-193.957-233.342-264.026
							c-121.147-69.942-266.287-107.478-398.181-103.057c-138.42,4.665-380.1,60.049-443.506,378.552
							c-1.821,9.16-10.723,15.115-19.883,13.281c-9.158-1.821-15.105-10.725-13.281-19.883
							c49.636-249.346,222.961-397.236,475.53-405.749c295.41-9.915,606.384,173.955,665.718,393.557
							c0.273,1.008,0.452,2.044,0.532,3.086l27.322,348.13c0.208,2.646-0.21,5.303-1.218,7.756
							c-81.233,197.446-222.073,335.537-396.572,388.835C2081.721,1790.937,2026.626,1798.933,1971.15,1798.933z"/>
					</g>
				</g>
                <g>
					<g>
						<path style="fill:#371A45;" d="M2059.189,1846.489c-84.702,0-169.573-15.439-251.125-46.421
							c-364.089-138.313-547.773-547.046-409.463-911.133c66.999-176.375,198.674-316.099,370.767-393.435
							c172.087-77.339,363.999-83.03,540.369-16.028c364.089,138.313,547.773,547.046,409.46,911.135
							c-67,176.372-198.674,316.096-370.764,393.432C2255.915,1825.617,2157.668,1846.489,2059.189,1846.489z M2058.628,474.589
							c-92.7,0-185.156,19.641-272.244,58.777c-161.975,72.793-285.911,204.304-348.975,370.31
							c-130.181,342.691,42.707,727.4,385.396,857.583c166.013,63.062,346.636,57.703,508.608-15.085
							c161.975-72.793,285.911-204.304,348.975-370.308l19.404,7.371l-19.404-7.371c130.183-342.691-42.705-727.402-385.393-857.586
							C2218.242,489.125,2138.342,474.589,2058.628,474.589z"/>
					</g>
				</g>
                <g>
					<g>
						<g>
							<path style="fill:#F8F8F8;" d="M2766.792,1191.793c1.616,122.941-59.444,221.977-155.077,223.234
								s-174.469-97.388-176.085-220.329c-1.616-122.941,74.6-223.624,170.232-224.881
								C2701.495,968.559,2765.175,1068.852,2766.792,1191.793z"/>
						</g>
					</g>
                    <g style="opacity:0.25;">
						<g>
							<path style="fill:#371A45;" d="M2611.688,1415.031c-95.609,1.24-174.446-97.379-176.038-220.313
								c-0.513-38.962,6.769-75.746,20.079-107.768c15.849,103.812,87.689,181.807,172.75,180.72
								c63.271-0.864,111.415-44.433,136.291-109.442c1.207,10.949,1.884,22.179,2.02,33.566
								C2768.383,1314.727,2707.371,1413.758,2611.688,1415.031z"/>
						</g>
					</g>
                    <g>
						<g>
							<path style="fill:#371A45;" d="M2609.875,1435.796c-52.012,0.002-100.828-25.293-137.676-71.399
								c-36.125-45.203-56.484-105.374-57.327-169.426c-1.763-134.19,83.792-244.504,190.715-245.911
								c52.151-0.544,99.6,25.344,133.025,73.301c30.701,44.05,48.081,104.126,48.936,169.16
								c1.843,140.173-71.992,242.9-175.562,244.263C2611.284,1435.793,2610.576,1435.796,2609.875,1435.796z M2607.654,990.563
								c-0.508,0-1.008,0.003-1.519,0.01c-84.036,1.104-151.213,92.551-149.749,203.85c0.72,54.868,17.854,106.028,48.245,144.053
								c29.172,36.501,67.1,56.326,106.809,55.794c79.517-1.045,136.123-86.084,134.595-202.202
								c-0.747-56.819-15.479-108.657-41.482-145.967C2686.838,1020.681,2655.696,990.563,2607.654,990.563z"/>
						</g>
					</g>
                    <g>
						<g>
							<path style="fill:#371A45;" d="M2669.526,1400.532c-83.687,0-152.761-93.457-154.319-209.304
								c-0.708-55.361,13.84-107.813,40.962-147.7c28.42-41.797,67.231-65.11,109.287-65.647c8.489-0.107,17.065,0.796,25.43,2.656
								c0.732,0.161,1.453,0.371,2.156,0.627c8.979,3.264,13.638,13.201,10.374,22.178c-3.064,8.428-11.987,13.025-20.479,10.869
								c-5.63-1.218-11.416-1.792-17.061-1.736c-30.408,0.388-59.216,18.325-81.099,50.505
								c-23.171,34.082-35.593,79.465-34.976,127.793c1.301,96.911,54.89,175.161,119.683,175.161c0.361,0,0.718-0.002,1.082-0.007
								c8.862-0.122,17.4-1.692,25.369-4.665c8.965-3.345,18.916,1.206,22.256,10.156s-1.206,18.916-10.156,22.256
								c-11.702,4.368-24.15,6.67-37,6.848C2670.537,1400.527,2670.024,1400.532,2669.526,1400.532z"/>
						</g>
					</g>
				</g>
                <g style="opacity:0.5;">
					<g>
						<path style="fill:#FFFFFF;" d="M1885.28,774.288c-203.308,126.721-321.417,302.327-342.397,533.663
							c-1.682,18.55-27.942,21.09-33.106,3.194c-84.68-293.432-43.066-547.137,365.617-568.177
							C1892.907,742.066,1900.162,765.012,1885.28,774.288z"/>
					</g>
				</g>
                <g style="opacity:0.5;">
					<g>
						<path style="fill:#FFFFFF;" d="M2280.775,1202.969l-3.626,0.3c-33.171,2.739-62.962-20.205-68.923-52.951
							c-0.682-3.749-1.385-7.379-2.1-10.883c-7.116-34.892,15.034-69.02,49.917-76.181l2.737-0.562
							c32.642-6.701,65.037,12.531,74.844,44.379c1.442,4.683,2.809,9.346,4.103,13.988
							C2348.639,1160.21,2321.281,1199.625,2280.775,1202.969z"/>
					</g>
				</g>
                <g style="opacity:0.5;">
					<g>
						<path style="fill:#FFFFFF;" d="M2148.324,1595.454L2148.324,1595.454c-31.324-18.758-40.966-59.778-21.12-90.424
							c34.011-52.519,53.903-105.694,64.617-155.869c7.522-35.226,41.709-57.994,76.929-50.441c3.024,0.649,6.05,1.297,9.071,1.945
							c35.543,7.616,58.069,43.106,49.306,78.385c-21.824,87.854-62.847,156.724-93.177,198.797
							C2214.321,1605.074,2177.121,1612.7,2148.324,1595.454z"/>
					</g>
				</g>
			</g>
            <g style="opacity:0.25;">
				<g>
					<path style="fill:#371A45;" d="M1807.337,2620.732c0,0,227.206,63.724,404.016-67.816l-81.875,122.145l-29.165,19.28
						c-61.618,3.437-111.613,17.448-142.86,48.515C1894.879,2719.931,1843.118,2681.668,1807.337,2620.732z"/>
				</g>
			</g>
            <g style="opacity:0.25;">
				<g>
					<path style="fill:#371A45;" d="M1734.791,1949.651c0,0-76.727,68.494-116.975,205.407l52.428,113.424l18.364-12.407
						c0,0,8.542-141.555,6.406-144.117s22.823-28.828,28.601-66.624c5.778-37.796,5.368-61.081,5.368-61.081"/>
				</g>
			</g>
            <g>
				<g>
					<path style="fill:#371A45;" d="M1332.59,2734.903l31.012,70.842l-60.344-48.362c-8.201-6.572-9.521-18.55-2.948-26.75
						C1308.787,2719.477,1327.32,2722.069,1332.59,2734.903L1332.59,2734.903z"/>
				</g>
			</g>
            <g>
				<g>
					<path style="fill:#371A45;" d="M2581.189,1765.07c-3.999,0-8.027-1.294-11.414-3.958c-8.02-6.311-9.407-17.927-3.096-25.947
						c87.661-111.399,222.605-92.08,228.308-91.208c10.085,1.553,17.004,10.986,15.454,21.074
						c-1.55,10.071-10.969,16.975-21.033,15.459c-4.905-0.732-119.634-16.582-193.687,77.527
						C2592.077,1762.651,2586.66,1765.07,2581.189,1765.07z"/>
				</g>
			</g>
            <g style="opacity:0.25;">
				<g>
					<path style="fill:#371A45;" d="M2588.496,1592.174c0,0-105.095,48.389,42.247,208.814
						c-52.94-54.2-107.875-96.411-166.347-117.358l81.363-96.548"/>
				</g>
			</g>
		</g>
	</g>
</g>
</svg>
